<?xml version="1.0" standalone="no"?>
<!DOCTYPE svg PUBLIC "-//W3C//DTD SVG 20010904//EN"
 "http://www.w3.org/TR/2001/REC-SVG-20010904/DTD/svg10.dtd">
<svg version="1.0" xmlns="http://www.w3.org/2000/svg"
 width="1080.000000pt" height="1080.000000pt" viewBox="0 0 1080.000000 1080.000000"
 preserveAspectRatio="xMidYMid meet">
<metadata>
Created by potrace 1.14, written by Peter Selinger 2001-2017
</metadata>
<g transform="translate(0.000000,1080.000000) scale(0.100000,-0.100000)"
fill="#000000" stroke="none">
<path d="M103 10722 c-16 -2 -23 -10 -24 -25 0 -12 -1 -2404 -1 -5316 -1
-3688 2 -5295 10 -5300 7 -4 10582 -7 10624 -2 9 1 -4 93 -38 266 -6 31 -33
179 -54 300 -11 61 -22 121 -25 135 -3 14 -12 63 -20 110 -8 47 -17 96 -20
110 -7 31 -29 156 -50 275 -9 50 -18 101 -21 115 -2 14 -11 63 -20 110 -12 71
-32 175 -68 375 -3 17 -8 42 -11 58 -9 49 -26 146 -31 174 -3 16 -14 78 -25
138 -12 61 -23 124 -25 140 -3 17 -12 66 -21 110 -8 44 -16 89 -18 100 -3 24
-15 93 -60 330 -18 99 -36 198 -39 220 -4 23 -9 52 -12 65 -3 14 -8 39 -10 55
-3 17 -16 89 -29 160 -13 72 -26 141 -28 155 -3 14 -8 43 -12 65 -8 43 -11 61
-21 115 -4 19 -8 44 -10 55 -2 11 -15 83 -29 160 -25 140 -30 168 -40 215 -2
14 -7 39 -10 55 -2 17 -9 55 -15 85 -6 30 -13 71 -16 90 -2 19 -9 55 -14 80
-4 25 -14 74 -20 110 -6 36 -15 85 -20 110 -5 25 -14 74 -20 110 -6 36 -16 85
-21 110 -5 25 -15 83 -23 130 -14 78 -49 276 -77 425 -6 33 -15 85 -21 115 -5
30 -14 75 -19 100 -5 25 -11 61 -14 80 -3 19 -10 60 -16 90 -18 96 -30 164
-35 195 -3 17 -13 75 -24 130 -10 55 -21 116 -24 135 -3 19 -8 49 -11 65 -4
17 -24 127 -45 245 -22 118 -42 229 -45 245 -3 17 -12 66 -20 110 -8 44 -17
91 -20 105 -3 14 -7 39 -10 55 -3 17 -7 44 -10 60 -3 17 -10 53 -15 80 -14 83
-18 103 -106 585 -46 256 -87 479 -90 495 -2 17 -13 77 -24 135 -10 58 -21
119 -24 135 -3 17 -8 44 -11 60 -5 28 -49 269 -59 325 -2 14 -13 75 -25 135
-11 61 -23 124 -25 140 -3 17 -10 55 -16 85 -6 30 -13 71 -15 90 -3 19 -9 55
-15 80 -5 25 -14 72 -20 105 -5 33 -12 71 -15 85 -3 14 -12 63 -20 110 -8 47
-17 96 -20 110 -3 14 -14 75 -25 135 -74 419 -107 596 -114 602 -6 7 -1194 8
-1201 2 -2 -2 -36 -182 -75 -399 -39 -217 -85 -469 -102 -560 -16 -91 -32
-176 -34 -190 -3 -14 -16 -88 -30 -165 -14 -77 -28 -151 -30 -165 -2 -14 -7
-36 -9 -50 -10 -48 -13 -68 -19 -106 -4 -22 -13 -73 -20 -114 -8 -41 -22 -115
-31 -165 -9 -49 -20 -110 -25 -135 -5 -25 -11 -61 -14 -80 -6 -35 -7 -42 -21
-115 -4 -22 -9 -51 -11 -65 -3 -14 -16 -83 -29 -155 -13 -71 -27 -146 -30
-165 -7 -41 -31 -173 -52 -283 -20 -108 -22 -117 -27 -157 -3 -19 -9 -56 -15
-83 -6 -26 -14 -64 -17 -85 -3 -20 -11 -68 -19 -107 -8 -38 -17 -86 -20 -105
-14 -86 -27 -161 -40 -230 -18 -97 -53 -288 -59 -320 -2 -14 -13 -77 -25 -140
-11 -63 -22 -126 -25 -140 -2 -14 -15 -86 -29 -160 -14 -74 -28 -153 -32 -175
-3 -22 -7 -47 -10 -55 -2 -8 -6 -31 -9 -50 -5 -32 -38 -216 -86 -470 -10 -58
-28 -157 -40 -220 -11 -63 -22 -126 -25 -140 -3 -14 -7 -36 -9 -50 -3 -14 -8
-42 -11 -62 -2 -21 -9 -57 -14 -80 -5 -24 -12 -59 -15 -78 -3 -19 -12 -71 -20
-115 -22 -115 -26 -136 -32 -175 -3 -19 -12 -66 -19 -105 -8 -38 -16 -87 -19
-107 -3 -21 -10 -57 -15 -80 -5 -24 -12 -59 -15 -78 -4 -29 -27 -153 -80 -443
-14 -79 -27 -145 -31 -167 -3 -13 -7 -42 -11 -64 -3 -22 -7 -43 -9 -46 -1 -3
-6 -27 -9 -55 -4 -27 -9 -57 -11 -65 -2 -8 -7 -28 -10 -45 -15 -83 -36 -204
-41 -234 -3 -18 -8 -43 -10 -55 -8 -38 -34 -180 -40 -216 -2 -19 -7 -46 -10
-60 -10 -45 -14 -64 -20 -110 -3 -25 -8 -48 -10 -51 -1 -3 -8 -34 -14 -70 -19
-112 -30 -173 -35 -199 -3 -14 -8 -38 -10 -55 -3 -16 -22 -118 -41 -225 -20
-107 -37 -204 -39 -215 -2 -17 -50 -279 -70 -390 -3 -16 -13 -68 -21 -115 -8
-47 -17 -96 -20 -110 -10 -50 -34 -185 -35 -195 -2 -15 -22 87 -74 380 -3 17
-15 77 -25 135 -11 58 -22 116 -24 130 -2 14 -16 88 -30 165 -14 77 -28 152
-30 168 -3 15 -10 54 -16 87 -6 33 -13 72 -16 87 -3 16 -11 64 -19 108 -8 44
-16 91 -19 105 -2 14 -7 36 -10 50 -3 14 -8 43 -11 65 -3 22 -7 47 -10 55 -2
8 -6 33 -10 55 -3 22 -7 47 -10 55 -6 19 -13 64 -21 120 -3 25 -8 47 -9 50 -2
3 -11 46 -19 95 -16 88 -21 117 -31 173 -3 15 -14 77 -25 137 -11 61 -22 122
-25 138 -2 15 -9 53 -15 85 -6 31 -12 68 -15 82 -3 14 -14 75 -25 135 -10 61
-24 133 -29 162 -6 29 -13 74 -17 100 -3 26 -8 50 -9 53 -2 3 -11 46 -19 95
-9 50 -19 104 -22 120 -25 136 -74 407 -79 435 -6 34 -33 186 -41 225 -2 11
-11 58 -19 105 -8 47 -18 99 -20 115 -3 17 -8 39 -9 50 -11 61 -71 389 -92
505 -14 74 -32 173 -40 220 -19 112 -23 130 -29 160 -7 37 -47 256 -70 390 -3
14 -7 36 -10 50 -3 14 -12 63 -20 110 -8 47 -17 96 -20 110 -3 14 -12 65 -21
115 -8 49 -17 92 -19 95 -1 3 -6 27 -9 54 -4 27 -14 85 -22 130 -9 44 -18 92
-20 106 -3 14 -12 63 -20 110 -9 47 -18 96 -20 110 -11 62 -54 298 -59 325 -3
17 -8 44 -11 60 -3 17 -39 217 -81 445 -41 228 -77 426 -79 440 -2 14 -7 36
-9 50 -3 14 -8 39 -10 55 -3 17 -14 77 -25 135 -11 58 -26 143 -34 190 -8 47
-26 146 -40 220 -14 74 -28 151 -31 170 -3 19 -10 60 -16 90 -6 30 -12 69 -15
85 -3 17 -9 50 -14 75 -9 43 -13 62 -26 140 -4 19 -7 40 -8 45 -2 6 -6 33 -10
60 -4 28 -12 66 -16 85 -5 19 -11 53 -14 75 -4 22 -13 74 -21 115 -8 41 -16
89 -19 105 -5 30 -16 94 -35 195 -6 30 -13 68 -15 84 -3 16 -7 31 -10 34 -7 6
-1195 6 -1201 0 -4 -4 -30 -136 -51 -253 -2 -16 -13 -77 -24 -135 -11 -58 -22
-123 -25 -145 -4 -22 -8 -48 -11 -57 -6 -21 -8 -32 -28 -148 -9 -52 -19 -108
-22 -125 -11 -57 -115 -630 -125 -685 -5 -30 -12 -70 -15 -89 -3 -18 -8 -43
-10 -55 -7 -35 -36 -190 -40 -213 -2 -13 -6 -35 -9 -50 -3 -16 -12 -68 -21
-118 -9 -49 -18 -99 -19 -110 -3 -19 -10 -56 -19 -100 -8 -41 -35 -191 -41
-225 -3 -19 -8 -48 -12 -65 -3 -16 -7 -39 -9 -50 -2 -11 -6 -33 -9 -50 -15
-79 -25 -133 -29 -160 -3 -16 -15 -82 -26 -145 -12 -63 -24 -128 -26 -145 -3
-16 -9 -52 -14 -80 -5 -27 -12 -63 -15 -80 -3 -16 -19 -102 -35 -190 -16 -88
-32 -176 -35 -195 -3 -19 -10 -57 -15 -85 -15 -75 -18 -89 -24 -131 -4 -22
-15 -86 -26 -144 -21 -112 -27 -145 -36 -199 -3 -18 -8 -43 -10 -55 -2 -11 -7
-37 -10 -56 -4 -19 -9 -44 -11 -55 -2 -11 -6 -32 -8 -46 -3 -22 -34 -186 -50
-269 -2 -13 -7 -42 -11 -65 -3 -22 -12 -69 -19 -105 -7 -36 -16 -85 -20 -110
-3 -25 -12 -76 -20 -115 -13 -67 -37 -200 -50 -275 -3 -19 -15 -80 -25 -135
-10 -55 -35 -190 -55 -300 -19 -110 -38 -213 -41 -230 -3 -16 -23 -127 -45
-245 -22 -118 -42 -228 -45 -245 -2 -16 -25 -140 -49 -275 -24 -135 -46 -256
-49 -270 -2 -14 -12 -65 -21 -115 -10 -49 -19 -101 -21 -115 -5 -25 -42 -232
-51 -280 -51 -277 -126 -691 -128 -710 -2 -14 -13 -74 -24 -135 -12 -60 -24
-125 -27 -144 -3 -18 -8 -43 -10 -55 -4 -20 -21 -115 -31 -166 -2 -14 -15 -83
-28 -155 -13 -71 -26 -146 -29 -165 -3 -19 -10 -57 -15 -85 -6 -27 -13 -63
-16 -80 -8 -51 -35 -199 -39 -220 -2 -11 -7 -39 -11 -62 -4 -24 -10 -45 -13
-47 -4 -2 -7 2158 -7 4801 0 4034 -2 4806 -14 4811 -14 5 -951 9 -988 4z
m3410 -2126 c27 -156 50 -297 53 -313 2 -15 9 -50 14 -78 6 -27 12 -63 14 -80
4 -28 20 -130 32 -200 25 -142 58 -336 70 -410 8 -49 17 -101 19 -115 3 -14
25 -144 50 -290 25 -146 47 -274 49 -285 2 -11 7 -42 10 -70 4 -27 9 -57 11
-65 2 -8 6 -31 9 -50 3 -19 14 -84 25 -145 11 -60 22 -126 25 -145 3 -19 12
-75 21 -125 9 -49 18 -101 20 -115 2 -14 9 -52 14 -85 6 -33 17 -103 26 -155
9 -52 18 -106 20 -120 3 -14 12 -65 20 -115 8 -49 17 -101 20 -115 2 -13 7
-42 10 -65 4 -22 12 -76 20 -120 8 -44 16 -93 19 -110 3 -16 16 -95 30 -175
14 -80 28 -163 31 -185 4 -22 15 -89 25 -150 11 -60 22 -123 24 -140 3 -16 12
-72 21 -124 9 -51 14 -99 12 -105 -3 -8 -221 -11 -793 -10 -434 1 -795 2 -802
3 -9 1 -12 10 -8 29 3 15 8 41 11 57 2 17 7 41 10 55 6 32 14 75 21 120 5 32
79 459 90 520 7 40 45 262 50 295 7 48 24 142 29 172 7 34 21 115 29 163 4 19
8 46 11 60 3 14 7 39 9 55 8 49 53 308 81 470 14 83 28 161 30 175 3 21 19
112 40 235 3 17 12 66 20 110 8 44 16 94 19 110 3 17 15 84 26 150 12 66 23
131 25 145 3 25 11 64 20 110 3 14 8 45 11 70 3 25 7 52 9 60 2 8 6 29 9 45 9
54 37 219 42 245 2 14 25 144 50 290 55 317 90 523 98 568 3 17 8 47 11 65 15
90 27 153 31 159 3 5 17 8 32 8 l28 0 47 -284z m4680 247 c3 -21 19 -119 37
-218 17 -99 33 -196 36 -215 2 -19 9 -55 14 -80 5 -25 12 -67 16 -95 4 -27 9
-57 10 -65 2 -8 6 -28 8 -45 4 -27 110 -650 120 -700 2 -11 7 -42 10 -68 4
-27 9 -59 12 -70 5 -25 42 -245 50 -292 2 -16 7 -41 9 -55 10 -50 15 -75 20
-111 3 -21 17 -104 31 -186 28 -165 29 -172 39 -228 3 -22 22 -130 40 -240 19
-110 36 -213 39 -230 18 -115 37 -224 41 -245 13 -64 15 -78 21 -130 3 -30 8
-58 9 -61 3 -4 64 -357 96 -554 6 -33 12 -71 14 -85 3 -14 12 -68 21 -120 8
-52 17 -106 20 -120 2 -14 6 -36 9 -50 14 -73 35 -203 35 -223 l0 -22 -802 0
-803 0 3 30 c2 17 14 91 27 165 13 74 27 155 30 180 4 25 10 63 15 85 7 32 51
287 76 440 6 41 23 134 29 165 3 14 16 93 30 175 30 176 28 166 49 275 8 47
18 102 20 122 5 34 19 115 31 178 3 14 8 45 11 70 3 25 8 47 9 50 2 3 6 26 10
50 3 25 22 131 40 235 18 105 36 210 40 235 4 24 8 47 10 50 2 3 6 29 10 59 4
30 9 63 11 75 3 12 7 32 9 46 7 43 75 434 80 460 2 13 7 42 10 65 3 22 8 47
10 55 3 8 7 35 10 60 3 25 7 52 10 60 2 8 6 29 9 45 6 35 65 379 71 415 9 47
30 170 39 225 12 73 17 103 26 155 6 30 12 66 15 80 3 14 13 73 22 132 l18
108 31 0 c29 0 32 -3 37 -37z m-3789 -5475 c10 -48 25 -138 107 -613 49 -291
48 -285 54 -315 8 -40 12 -62 19 -113 4 -27 9 -59 12 -70 2 -12 6 -35 9 -52 3
-16 10 -52 15 -80 5 -27 12 -68 15 -90 3 -22 7 -47 10 -55 2 -8 6 -31 9 -50
11 -77 147 -856 152 -872 5 -16 -81 -17 -1370 -17 -1102 0 -1376 3 -1376 13 0
7 4 37 10 67 5 30 12 68 14 84 3 17 10 55 16 85 6 30 13 71 16 90 5 37 19 123
30 180 3 19 7 44 9 55 1 11 15 92 29 180 15 88 29 169 31 180 1 11 8 47 14 80
6 33 13 74 15 90 3 17 12 73 21 125 9 52 18 106 20 120 37 224 67 400 71 420
2 14 7 41 10 60 3 19 14 85 25 145 10 61 29 170 41 243 l22 132 973 0 973 0 4
-22z m4733 -63 c7 -44 24 -143 38 -220 13 -77 27 -156 30 -175 3 -19 10 -57
15 -85 5 -27 11 -61 14 -75 2 -14 7 -41 10 -60 14 -82 17 -97 21 -130 3 -19 8
-46 11 -60 3 -14 14 -77 25 -140 10 -63 21 -126 24 -140 4 -25 62 -362 71
-412 6 -40 13 -79 19 -108 3 -14 14 -79 25 -145 27 -161 63 -367 74 -421 2
-12 7 -38 10 -57 l6 -36 -1376 0 -1375 0 5 27 c5 25 51 297 62 367 2 17 9 53
14 80 5 28 11 66 14 85 3 19 17 105 31 190 14 85 28 169 31 185 2 17 7 44 11
60 3 17 7 40 9 52 1 12 5 34 8 50 4 15 8 42 10 58 4 30 12 79 21 125 3 14 7
39 10 55 2 17 23 138 45 270 22 132 43 255 46 274 3 18 7 43 10 54 2 12 6 39
10 62 3 22 7 45 8 50 1 6 13 76 26 158 l24 147 975 -2 975 -3 13 -80z"/>
</g>
</svg>
